<svg width="40" height="40" viewBox="0 0 40 40" fill="none" xmlns="http://www.w3.org/2000/svg">
<g clip-path="url(#clip0_302_66)">
<mask id="mask0_302_66" style="mask-type:luminance" maskUnits="userSpaceOnUse" x="0" y="0" width="40" height="40">
<path d="M0 0H40V40H0V0Z" fill="white"/>
</mask>
<g mask="url(#mask0_302_66)">
<path d="M8.46655 0H10.2699V1.78167H11.9199V0H13.7232V5.39333H11.9199V3.58833H10.2699V5.39333H8.46822L8.46655 0ZM16.0932 1.78833H14.5066V0H19.4849V1.78833H17.8966V5.39333H16.0932V1.78833ZM20.2749 0H22.1549L23.3116 1.895L24.4666 0H26.3466V5.39333H24.5516V2.72L23.3116 4.63833H23.2799L22.0382 2.72167V5.39333H20.2749V0ZM27.2432 0H29.0482V3.61167H31.5816V5.395H27.2432V0Z" fill="#222222"/>
<path fill-rule="evenodd" clip-rule="evenodd" d="M8.41 36.7867L5 7.86169H35L31.5883 36.7834L19.9833 40L8.41 36.7867ZM15.305 20.9534L14.9817 17.32H28.5567L28.8733 13.7734H11.1067L12.0633 24.5017H24.3583L23.9467 29.1017L19.99 30.1717H19.9867L16.0367 29.105L15.7833 26.2767H12.22L12.7167 31.8467L19.9833 33.8634L27.2617 31.8467L28.1483 21.9067L28.235 20.955H15.305V20.9534Z" fill="#222222"/>
</g>
</g>
<defs>
<clipPath id="clip0_302_66">
<rect width="40" height="40" fill="white"/>
</clipPath>
</defs>
</svg>
