<svg width="14" height="15" viewBox="0 0 14 15" fill="none" xmlns="http://www.w3.org/2000/svg">
<g clip-path="url(#clip0_302_49)">
<path d="M0 1.61188C0 1.05801 0.46025 0.609131 1.02812 0.609131H12.9719C13.5398 0.609131 14 1.05801 14 1.61188V13.6064C14 14.1603 13.5398 14.6091 12.9719 14.6091H1.02812C0.46025 14.6091 0 14.1603 0 13.6064V1.61188ZM4.32512 12.3289V6.00701H2.22425V12.3289H4.32512ZM3.27513 5.14338C4.0075 5.14338 4.46338 4.65863 4.46338 4.05138C4.45025 3.43101 4.00838 2.95938 3.28912 2.95938C2.56988 2.95938 2.1 3.43188 2.1 4.05138C2.1 4.65863 2.55588 5.14338 3.26113 5.14338H3.27513ZM7.56962 12.3289V8.79826C7.56962 8.60926 7.58362 8.42026 7.63963 8.28551C7.791 7.90838 8.13663 7.51726 8.71763 7.51726C9.478 7.51726 9.78162 8.09651 9.78162 8.94701V12.3289H11.8825V8.70288C11.8825 6.76038 10.8465 5.85738 9.464 5.85738C8.34925 5.85738 7.84963 6.46988 7.56962 6.90126V6.92313H7.55562C7.56027 6.91583 7.56494 6.90854 7.56962 6.90126V6.00701H5.46962C5.49587 6.60026 5.46962 12.3289 5.46962 12.3289H7.56962Z" fill="#252525"/>
</g>
<defs>
<clipPath id="clip0_302_49">
<rect width="14" height="14" fill="white" transform="translate(0 0.609131)"/>
</clipPath>
</defs>
</svg>
