<svg width="40" height="40" viewBox="0 0 40 40" fill="none" xmlns="http://www.w3.org/2000/svg">
<path d="M29.3599 11.425V15.1325C29.3448 16.5186 28.7929 17.8449 27.82 18.8324C26.8472 19.8199 25.5294 20.3917 24.1437 20.4275H15.8037C14.6917 20.4497 13.6324 20.9059 12.8523 21.6986C12.0722 22.4914 11.633 23.5578 11.6287 24.67V32.62C11.6287 34.8825 13.5962 36.215 15.8037 36.8638C18.5188 37.7129 21.4285 37.7129 24.1437 36.8638C26.2462 36.255 28.3187 35.03 28.3187 32.6213V29.4375H19.9787V28.3763H32.4937C34.9199 28.3763 35.8249 26.6838 36.6687 24.1438C37.5257 21.3795 37.5257 18.4205 36.6687 15.6563C36.0687 13.2413 34.9237 11.4238 32.4937 11.4238L29.3599 11.425ZM24.6699 31.56C24.9858 31.5553 25.296 31.6447 25.5609 31.8169C25.8258 31.9891 26.0334 32.2362 26.1573 32.5268C26.2813 32.8174 26.3159 33.1384 26.2568 33.4487C26.1977 33.7591 26.0476 34.0448 25.8255 34.2696C25.6034 34.4943 25.3195 34.6478 25.0099 34.7106C24.7002 34.7734 24.3789 34.7426 24.0869 34.6221C23.7948 34.5016 23.5452 34.2969 23.3699 34.0341C23.1946 33.7713 23.1015 33.4622 23.1024 33.1463C23.1008 32.939 23.14 32.7335 23.218 32.5414C23.2959 32.3494 23.411 32.1746 23.5566 32.0271C23.7023 31.8797 23.8756 31.7624 24.0666 31.682C24.2576 31.6016 24.4627 31.561 24.6699 31.56Z" fill="#222222"/>
<path d="M19.7938 2.49998C18.4565 2.50162 17.1218 2.61578 15.8038 2.84123C12.27 3.46498 11.6288 4.77123 11.6288 7.18123V10.3625H19.9788V11.4237H8.49502C7.26591 11.401 6.06833 11.8134 5.11384 12.5882C4.15935 13.3629 3.50938 14.45 3.27877 15.6575C2.49497 18.4319 2.49497 21.3693 3.27877 24.1437C3.87252 26.615 5.29002 28.3762 7.71627 28.3762H10.5875V24.5625C10.618 23.1913 11.1783 21.8852 12.1508 20.918C13.1232 19.9509 14.4324 19.3979 15.8038 19.375H24.1438C24.6966 19.3709 25.2431 19.2579 25.7522 19.0424C26.2613 18.8269 26.7229 18.5132 27.1107 18.1192C27.4984 17.7251 27.8047 17.2586 28.012 16.7461C28.2193 16.2336 28.3235 15.6853 28.3188 15.1325V7.18123C28.2486 6.0809 27.7906 5.04109 27.0262 4.2465C26.2618 3.45192 25.2405 2.95401 24.1438 2.84123C22.7059 2.60601 21.2508 2.49186 19.7938 2.49998ZM15.2788 5.05998C15.5942 5.05527 15.904 5.14445 16.1687 5.31619C16.4333 5.48793 16.641 5.73448 16.7652 6.0245C16.8894 6.31453 16.9247 6.63493 16.8664 6.94501C16.8081 7.25509 16.6589 7.54084 16.4379 7.76596C16.2168 7.99108 15.9338 8.1454 15.6248 8.20931C15.3159 8.27322 14.9949 8.24384 14.7026 8.1249C14.4104 8.00596 14.1601 7.80283 13.9836 7.54133C13.8071 7.27982 13.7123 6.97174 13.7113 6.65623C13.7083 6.23693 13.8715 5.83353 14.1653 5.53435C14.4591 5.23517 14.8595 5.0646 15.2788 5.05998Z" fill="#222222"/>
</svg>
