<svg width="50" height="50" viewBox="0 0 50 50" fill="none" xmlns="http://www.w3.org/2000/svg">
<g clip-path="url(#clip0_517_8)">
<path d="M23.3167 0.817968C20.3128 1.06523 17.4284 1.81719 14.6636 3.07617C6.3874 7.30156 1.77295 14.0488 0.817871 23.3168V26.5867C1.06514 29.5914 1.81709 32.4754 3.07607 35.2402C7.30147 43.5164 14.0487 48.1309 23.3167 49.0859H26.5866C29.5913 48.8387 32.4753 48.0852 35.2401 46.8262C43.5163 42.6023 48.1308 35.8551 49.0858 26.5867V23.3172C48.8386 20.3125 48.0851 17.4285 46.8261 14.6637C42.6022 6.3875 35.855 1.77305 26.5866 0.817968H23.3167ZM24.3792 1.36797C30.4562 1.18281 35.9995 3.25859 41.0093 7.5957C47.1265 13.5738 49.5147 20.8027 48.1733 29.2785C47.0749 34.7641 44.4304 39.3309 40.2405 42.9809C40.0296 43.1656 39.8054 43.2934 39.5675 43.3656C38.9679 41.5766 39.0792 39.8316 39.9034 38.1258C41.1214 36.1364 42.0904 34.005 42.7886 31.7793C43.4753 29.4676 43.7144 27.1285 43.5089 24.759C43.405 22.1863 42.7323 19.7816 41.4901 17.5477C41.7382 16.8055 41.8204 16.018 41.7312 15.2406C41.5327 14.7477 41.1647 14.4762 40.6249 14.4227C39.7927 14.3749 38.9591 14.3591 38.1257 14.3754C36.4793 14.4872 34.8588 14.8435 33.3175 15.4328C31.8112 15.5059 30.3054 15.5531 28.7979 15.5762C28.4151 15.7316 28.0304 15.7484 27.6444 15.625C26.5593 15.5793 25.662 15.1457 24.9511 14.3266C23.8847 13.675 22.7628 13.5469 21.5866 13.9418C20.7546 14.5125 20.4499 15.2973 20.6726 16.298C21.1835 17.2059 21.3269 18.1672 21.1062 19.1832C21.0142 19.3373 20.9335 19.4979 20.8647 19.6637C18.1914 22.1103 15.8045 24.8526 13.7499 27.8379C13.1394 28.8991 12.6557 30.0283 12.3085 31.2023C12.1167 32.8715 12.8062 34.0078 14.3765 34.6164C15.2394 34.9597 16.1442 35.1863 17.0671 35.2902C16.2983 35.8746 15.4323 36.066 14.4726 35.866C13.2589 35.6538 12.0788 35.2818 10.9628 34.7598C9.81221 36.8353 8.73754 38.9521 7.74092 41.1059C7.09973 40.383 6.47483 39.6458 5.8667 38.8949C5.8353 38.8359 5.81889 38.77 5.81889 38.7031C5.81889 38.6362 5.8353 38.5704 5.8667 38.5113C6.68582 36.5843 7.58345 34.6915 8.55732 32.8379C9.05811 33.7246 9.78037 34.3176 10.7218 34.6164C9.96787 33.8937 9.50264 33.0109 9.32725 31.9719C9.15091 30.3218 9.3147 28.6531 9.8085 27.0687C11.7374 20.8812 15.2147 15.7672 20.2409 11.7312C22.4093 10.1824 24.8128 9.18906 27.4522 8.74961C27.7632 8.7284 28.0746 8.71602 28.3862 8.7125C30.5534 8.68789 32.6464 9.10078 34.6636 9.95312V9.95234C32.639 8.28281 30.2983 7.44961 27.6448 7.45273C25.5452 7.4957 23.589 8.05547 21.7792 9.13437C17.9472 11.3258 14.7753 14.2414 12.2593 17.8852C11.478 17.975 10.6921 18.0227 9.90459 18.0285C5.81709 17.3863 4.63115 18.9582 6.34639 22.7406C7.03988 24.1265 7.68121 25.5379 8.26904 26.9719C8.18191 28.1241 8.11784 29.278 8.07686 30.4328C6.83226 32.4406 5.6613 34.4932 4.56631 36.5863C4.50225 36.7145 4.43818 36.7145 4.37412 36.5863C1.23701 30.707 0.546777 24.5527 2.30615 18.1242C4.95068 10.225 10.2241 4.95156 18.1233 2.30703C20.2679 1.74297 22.3534 1.42969 24.3792 1.36797ZM39.8558 32.4523C39.3237 34.702 38.5666 36.8925 37.596 38.9906C37.3929 39.3707 37.0882 39.6273 36.6819 39.7602L36.5858 39.6148C37.0014 38.4595 37.1971 37.2367 37.1628 36.0094C36.8167 37.451 36.2837 38.8411 35.5772 40.1445C34.839 40.448 34.0851 40.4953 33.3175 40.2879C33.079 39.988 32.8993 39.6458 32.7878 39.2793C32.5404 38.0755 32.396 36.8529 32.3562 35.6246C35.405 35.8309 37.9038 34.773 39.8562 32.4527L39.8558 32.4523Z" fill="#222222"/>
</g>
<defs>
<clipPath id="clip0_517_8">
<rect width="50" height="50" fill="white"/>
</clipPath>
</defs>
</svg>
