<svg width="29" height="22" viewBox="0 0 29 22" fill="none" xmlns="http://www.w3.org/2000/svg">
<g clip-path="url(#clip0_302_20)">
<path d="M9.14062 17.8594L8.35938 18.6406C8.25521 18.7448 8.13542 18.7969 8 18.7969C7.86458 18.7969 7.74479 18.7448 7.64062 18.6406L0.359375 11.3594C0.255208 11.2552 0.203125 11.1354 0.203125 11C0.203125 10.8646 0.255208 10.7448 0.359375 10.6406L7.64062 3.35938C7.74479 3.25521 7.86458 3.20313 8 3.20313C8.13542 3.20313 8.25521 3.25521 8.35938 3.35938L9.14062 4.14063C9.24479 4.2448 9.29688 4.36459 9.29688 4.50001C9.29688 4.63542 9.24479 4.75521 9.14062 4.85938L3 11L9.14062 17.1406C9.24479 17.2448 9.29688 17.3646 9.29688 17.5C9.29688 17.6354 9.24479 17.7552 9.14062 17.8594ZM18.375 1.18751L12.5469 21.3594C12.5052 21.4948 12.4245 21.5964 12.3047 21.6641C12.1849 21.7318 12.0625 21.7448 11.9375 21.7031L10.9688 21.4375C10.8333 21.3958 10.7318 21.3151 10.6641 21.1953C10.5964 21.0755 10.5833 20.9479 10.625 20.8125L16.4531 0.640631C16.4948 0.505214 16.5755 0.403652 16.6953 0.335943C16.8151 0.268235 16.9375 0.255214 17.0625 0.296881L18.0312 0.562506C18.1667 0.604172 18.2682 0.684902 18.3359 0.804693C18.4036 0.924485 18.4167 1.05209 18.375 1.18751ZM28.6406 11.3594L21.3594 18.6406C21.2552 18.7448 21.1354 18.7969 21 18.7969C20.8646 18.7969 20.7448 18.7448 20.6406 18.6406L19.8594 17.8594C19.7552 17.7552 19.7031 17.6354 19.7031 17.5C19.7031 17.3646 19.7552 17.2448 19.8594 17.1406L26 11L19.8594 4.85938C19.7552 4.75521 19.7031 4.63542 19.7031 4.50001C19.7031 4.36459 19.7552 4.2448 19.8594 4.14063L20.6406 3.35938C20.7448 3.25521 20.8646 3.20313 21 3.20313C21.1354 3.20313 21.2552 3.25521 21.3594 3.35938L28.6406 10.6406C28.7448 10.7448 28.7969 10.8646 28.7969 11C28.7969 11.1354 28.7448 11.2552 28.6406 11.3594Z" fill="#252525"/>
</g>
<defs>
<clipPath id="clip0_302_20">
<rect width="29" height="22" fill="white"/>
</clipPath>
</defs>
</svg>
