<svg width="10" height="22" viewBox="0 0 10 22" fill="none" xmlns="http://www.w3.org/2000/svg">
<g clip-path="url(#clip0_302_18)">
<path d="M10 19V21C10 21.2708 9.90104 21.5052 9.70312 21.7031C9.50521 21.901 9.27083 22 9 22H1C0.729167 22 0.494792 21.901 0.296875 21.7031C0.0989583 21.5052 0 21.2708 0 21V19C0 18.7292 0.0989583 18.4948 0.296875 18.2969C0.494792 18.099 0.729167 18 1 18H2V12H1C0.729167 12 0.494792 11.901 0.296875 11.7031C0.0989583 11.5052 0 11.2708 0 11V9C0 8.72917 0.0989583 8.49479 0.296875 8.29688C0.494792 8.09896 0.729167 8 1 8H7C7.27083 8 7.50521 8.09896 7.70312 8.29688C7.90104 8.49479 8 8.72917 8 9V18H9C9.27083 18 9.50521 18.099 9.70312 18.2969C9.90104 18.4948 10 18.7292 10 19ZM8 1V4C8 4.27083 7.90104 4.50521 7.70312 4.70312C7.50521 4.90104 7.27083 5 7 5H3C2.72917 5 2.49479 4.90104 2.29688 4.70312C2.09896 4.50521 2 4.27083 2 4V1C2 0.729167 2.09896 0.494792 2.29688 0.296875C2.49479 0.0989583 2.72917 0 3 0H7C7.27083 0 7.50521 0.0989583 7.70312 0.296875C7.90104 0.494792 8 0.729167 8 1Z" fill="#252525"/>
</g>
<defs>
<clipPath id="clip0_302_18">
<rect width="10" height="22" fill="white"/>
</clipPath>
</defs>
</svg>
