<svg width="28" height="22" viewBox="0 0 28 22" fill="none" xmlns="http://www.w3.org/2000/svg">
<g clip-path="url(#clip0_302_16)">
<path d="M10 3.66667H18V1.83333H10V3.66667ZM4.5 3.66667V22H3.5C2.54167 22 1.71875 21.6849 1.03125 21.0547C0.34375 20.4245 0 19.6701 0 18.7917V6.875C0 5.99653 0.34375 5.24219 1.03125 4.61198C1.71875 3.98177 2.54167 3.66667 3.5 3.66667H4.5ZM22 3.66667V22H6V3.66667H8V1.375C8 0.993056 8.14583 0.668403 8.4375 0.401042C8.72917 0.133681 9.08333 0 9.5 0H18.5C18.9167 0 19.2708 0.133681 19.5625 0.401042C19.8542 0.668403 20 0.993056 20 1.375V3.66667H22ZM28 6.875V18.7917C28 19.6701 27.6562 20.4245 26.9688 21.0547C26.2812 21.6849 25.4583 22 24.5 22H23.5V3.66667H24.5C25.4583 3.66667 26.2812 3.98177 26.9688 4.61198C27.6562 5.24219 28 5.99653 28 6.875Z" fill="#252525"/>
</g>
<defs>
<clipPath id="clip0_302_16">
<rect width="28" height="22" fill="white"/>
</clipPath>
</defs>
</svg>
