<svg width="50" height="50" viewBox="0 0 50 50" fill="none" xmlns="http://www.w3.org/2000/svg">
<path d="M24.9999 4.16666H18.0561C16.2142 4.16666 14.4478 4.89834 13.1454 6.20074C11.843 7.50314 11.1113 9.26957 11.1113 11.1114C11.1113 12.9533 11.843 14.7198 13.1454 16.0222C14.4478 17.3246 16.2142 18.0562 18.0561 18.0562H24.9999V4.16666Z" stroke="#222222" stroke-width="1.5"/>
<path d="M24.9999 18.0542H18.0561C16.2142 18.0542 14.4478 18.7858 13.1454 20.0883C11.843 21.3907 11.1113 23.1571 11.1113 24.999C11.1113 26.8408 11.843 28.6073 13.1454 29.9097C14.4478 31.2121 16.2142 31.9438 18.0561 31.9438H24.9999V18.0542Z" stroke="#222222" stroke-width="1.5"/>
<path d="M38.8894 25C38.8894 26.8419 38.1577 28.6083 36.8553 29.9107C35.5529 31.2131 33.7865 31.9448 31.9446 31.9448C30.1027 31.9448 28.3363 31.2131 27.0339 29.9107C25.7315 28.6083 24.9998 26.8419 24.9998 25C24.9998 23.1581 25.7315 21.3917 27.0339 20.0893C28.3363 18.7869 30.1027 18.0552 31.9446 18.0552C33.7865 18.0552 35.5529 18.7869 36.8553 20.0893C38.1577 21.3917 38.8894 23.1581 38.8894 25ZM18.0561 31.9458H24.9998V38.8896C24.9994 40.2628 24.5918 41.6051 23.8286 42.7468C23.0653 43.8884 21.9807 44.778 20.7119 45.3033C19.443 45.8285 18.0469 45.9657 16.7001 45.6976C15.3533 45.4294 14.1162 44.7679 13.1453 43.7967C12.1745 42.8256 11.5133 41.5883 11.2456 40.2414C10.9778 38.8945 11.1155 37.4984 11.6411 36.2298C12.1667 34.9611 13.0567 33.8767 14.1985 33.1138C15.3404 32.3509 16.6828 31.9458 18.0561 31.9458Z" stroke="#222222" stroke-width="1.5"/>
<path d="M25 4.16666H31.9438C33.7856 4.16666 35.5521 4.89834 36.8545 6.20074C38.1569 7.50314 38.8885 9.26957 38.8885 11.1114C38.8885 12.9533 38.1569 14.7198 36.8545 16.0222C35.5521 17.3246 33.7856 18.0562 31.9438 18.0562H25V4.16666Z" stroke="#222222" stroke-width="1.5"/>
</svg>
