<svg width="14" height="14" viewBox="0 0 14 14" fill="none" xmlns="http://www.w3.org/2000/svg">
<path fill-rule="evenodd" clip-rule="evenodd" d="M7 0C3.1325 0 0 3.12206 0 6.97668C0 10.0639 2.00375 12.6714 4.78625 13.5958C5.13625 13.6568 5.2675 13.4475 5.2675 13.2644C5.2675 13.0987 5.25875 12.5493 5.25875 11.965C3.5 12.2877 3.045 11.5377 2.905 11.1452C2.82625 10.9447 2.485 10.3255 2.1875 10.1598C1.9425 10.029 1.5925 9.7063 2.17875 9.69758C2.73 9.68886 3.12375 10.2034 3.255 10.4127C3.885 11.4679 4.89125 11.1714 5.29375 10.9883C5.355 10.5348 5.53875 10.2296 5.74 10.0551C4.1825 9.88072 2.555 9.27898 2.555 6.6104C2.555 5.85169 2.82625 5.22379 3.2725 4.73542C3.2025 4.561 2.9575 3.84589 3.3425 2.8866C3.3425 2.8866 3.92875 2.70346 5.2675 3.60171C5.8275 3.44474 6.4225 3.36625 7.0175 3.36625C7.6125 3.36625 8.2075 3.44474 8.7675 3.60171C10.1062 2.69474 10.6925 2.8866 10.6925 2.8866C11.0775 3.84589 10.8325 4.561 10.7625 4.73542C11.2088 5.22379 11.48 5.84297 11.48 6.6104C11.48 9.2877 9.84375 9.88072 8.28625 10.0551C8.54 10.2732 8.75875 10.6918 8.75875 11.3458C8.75875 12.279 8.75 13.0289 8.75 13.2644C8.75 13.4475 8.88125 13.6656 9.23125 13.5958C10.6209 13.1282 11.8284 12.2381 12.6838 11.0507C13.5393 9.86331 13.9996 8.43846 14 6.97668C14 3.12206 10.8675 0 7 0Z" fill="#252525"/>
</svg>
