<svg width="50" height="50" viewBox="0 0 50 50" fill="none" xmlns="http://www.w3.org/2000/svg">
<path d="M23.7002 33.2324H26.2998V26.1426H32.8428V23.6211H26.2998V16.5312H23.7002V23.6211H17.2402V26.1426H23.7002V33.2324ZM11.6465 43.4746H13.8525V37.1719H19.6826V35.2021H13.8525V28.8213H11.6465V35.2021H5.81641V37.1719H11.6465V43.4746ZM36.1475 20.7031H38.3535V14.4043H44.2617V12.5127H38.3535V6.13184H36.1475V12.5127H30.3174V14.4043H36.1475V20.7031ZM24.0938 48.4375H25.9844V43.9453H30.0029V42.293H25.9844V37.8008H24.0938V42.293H20.1553V43.9453H24.0938V48.4375ZM11.7256 20.7031H13.7764V14.3252H19.6855V12.5127H13.7695V6.13184H11.7188V12.5127H5.81641V14.3252H11.7256V20.7031ZM42.5508 30.1602H44.4414V25.748H48.4375V24.0156H44.4414V19.6035H42.5508V24.0156H38.6123V25.748H42.5508V30.1602Z" fill="#222222"/>
<path fill-rule="evenodd" clip-rule="evenodd" d="M36.1475 43.4746H38.3535V37.1719H44.2617V35.2021H38.3535V28.8213H36.1475V35.2021H30.3174V37.1719H36.1475V43.4746Z" fill="#222222"/>
<path d="M29.9805 7.23438V5.89551H26.041V1.5625H24.623V5.89551H20.6846V7.23438H24.623V11.5674H26.041V7.23438H29.9805ZM5.47949 29.8447H6.89746V25.5117H10.8398V24.1729H6.89746V19.9219H5.47949V24.1758H1.5625V25.5937L5.47949 25.5859V29.8447Z" fill="#222222"/>
</svg>
