<svg width="50" height="50" viewBox="0 0 50 50" fill="none" xmlns="http://www.w3.org/2000/svg">
<g clip-path="url(#clip0_516_2)">
<path d="M24.8894 0C23.7294 0.00275971 22.6181 0.466058 21.7996 1.28803C20.9811 2.11001 20.5226 3.22337 20.5248 4.38333C20.5258 5.24837 20.7831 6.0937 21.2644 6.8125L23.129 4.94583C22.9996 4.55246 23.0065 4.12696 23.1487 3.73803C23.2909 3.3491 23.56 3.01943 23.9126 2.80227C24.2652 2.5851 24.6807 2.4931 25.092 2.54113C25.5033 2.58915 25.8865 2.7744 26.1795 3.06696C26.4726 3.35952 26.6585 3.74231 26.7073 4.15354C26.756 4.56477 26.6648 4.98042 26.4482 5.3334C26.2317 5.68638 25.9025 5.95608 25.5138 6.09895C25.1252 6.24182 24.6997 6.24953 24.3061 6.12083L22.4415 7.98542C23.4013 8.62639 24.5759 8.86127 25.7084 8.63873C26.841 8.41618 27.8393 7.7543 28.4853 6.79778C29.1312 5.84127 29.3722 4.66792 29.1555 3.53425C28.9388 2.40058 28.2821 1.3988 27.329 0.747917C26.609 0.261674 25.7603 0.00126574 24.8915 0L24.8894 0ZM23.1519 12.7354C23.1549 11.2593 22.6774 9.82236 21.7915 8.64167L19.3623 11.0625C19.731 11.7359 19.8662 12.5125 19.7467 13.2709C19.6272 14.0293 19.2598 14.7267 18.7019 15.2542L20.0186 18.4729C20.978 17.854 21.7672 17.0048 22.3142 16.0026C22.8611 15.0004 23.1505 13.8772 23.1519 12.7354ZM16.3811 16.2062H16.3186C15.4172 16.1761 14.5627 15.7972 13.9353 15.1493C13.3079 14.5013 12.9566 13.6351 12.9555 12.7332C12.9545 11.8313 13.3037 10.9642 13.9295 10.3148C14.5553 9.66537 15.4089 9.28435 16.3102 9.25208C16.9914 9.25118 17.6579 9.4504 18.2269 9.825L20.6248 7.425C19.2157 6.30132 17.4197 5.77985 15.6279 5.97413C13.8361 6.1684 12.1936 7.0627 11.058 8.46228C9.92247 9.86187 9.38584 11.6534 9.56496 13.4468C9.74409 15.2402 10.6245 16.8902 12.0144 18.0375C12.7999 18.6751 13.7172 19.1303 14.7001 19.3702C15.6829 19.6102 16.7068 19.6289 17.6977 19.425L16.3811 16.2083V16.2062ZM24.9811 18.9896C23.4644 18.9896 21.9561 19.2104 20.5019 19.6458L22.4227 24.3375C25.006 23.6841 27.7412 24.0413 30.07 25.3363C32.3988 26.6313 34.1454 28.7663 34.9533 31.3055C35.7613 33.8447 35.5695 36.5965 34.4173 38.999C33.265 41.4016 31.2391 43.2738 28.7533 44.2333C26.2674 45.1928 23.509 45.1672 21.0414 44.1619C18.5737 43.1565 16.5829 41.2471 15.4753 38.8236C14.3677 36.4001 14.227 33.6452 15.0818 31.1215C15.9366 28.5977 17.7225 26.4954 20.0748 25.2437L18.179 20.5687C14.4866 22.3774 11.6639 25.5787 10.3316 29.4684C8.99936 33.3581 9.26669 37.6178 11.0748 41.3104C11.9704 43.139 13.2173 44.7753 14.7445 46.1219C16.2717 47.4685 18.0491 48.5012 19.9753 49.1608C21.9016 49.8205 23.9389 50.0943 25.971 49.9667C28.003 49.839 29.99 49.3123 31.8186 48.4167H31.8206C33.6495 47.5215 35.2842 46.2748 36.6313 44.7478C37.9783 43.2208 39.0114 41.4434 39.6714 39.5171C40.3315 37.5909 40.6057 35.5534 40.4783 33.5212C40.3509 31.4889 39.8245 29.5017 38.929 27.6729C37.653 25.0663 35.671 22.8702 33.2086 21.3343C30.7461 19.7985 27.902 18.9847 24.9998 18.9854H24.9831L24.9811 18.9896Z" fill="#222222"/>
</g>
<defs>
<clipPath id="clip0_516_2">
<rect width="50" height="50" fill="white"/>
</clipPath>
</defs>
</svg>
