<svg width="50" height="50" viewBox="0 0 50 50" fill="none" xmlns="http://www.w3.org/2000/svg">
<g clip-path="url(#clip0_302_109)">
<mask id="mask0_302_109" style="mask-type:luminance" maskUnits="userSpaceOnUse" x="0" y="0" width="50" height="50">
<path d="M50 0H0V50H50V0Z" fill="white"/>
</mask>
<g mask="url(#mask0_302_109)">
<mask id="mask1_302_109" style="mask-type:alpha" maskUnits="userSpaceOnUse" x="6" y="0" width="38" height="50">
<path d="M27.0833 2.08333C27.0833 0.932739 28.0161 0 29.1667 0H41.6667C42.8172 0 43.75 0.932739 43.75 2.08333V47.9167C43.75 49.0672 42.8172 50 41.6667 50H8.33333C7.18276 50 6.25 49.0672 6.25 47.9167V27.0833C6.25 25.9328 7.18276 25 8.33333 25H16.6667V14.5833C16.6667 13.4328 17.5995 12.5 18.7501 12.5H27.0833V2.08333Z" fill="white"/>
</mask>
<g mask="url(#mask1_302_109)">
<path d="M43.7499 0V50H27.0833V0H43.7499Z" fill="url(#paint0_linear_302_109)"/>
<g filter="url(#filter0_f_302_109)">
<path d="M33.3334 14.7917V50.2084H16.6667V12.7084H31.2501C32.4007 12.7084 33.3334 13.6411 33.3334 14.7917Z" fill="black" fill-opacity="0.2"/>
</g>
<g filter="url(#filter1_f_302_109)">
<path d="M33.3334 15.625V51.0416H16.6667V13.5416H31.2501C32.4007 13.5416 33.3334 14.4744 33.3334 15.625Z" fill="black" fill-opacity="0.18"/>
</g>
<path d="M33.3334 14.5833V50H16.6667V12.5H31.2501C32.4007 12.5 33.3334 13.4328 33.3334 14.5833Z" fill="url(#paint1_linear_302_109)"/>
<path d="M6.25 25V50H22.9167V27.0833C22.9167 25.9328 21.9839 25 20.8333 25H6.25Z" fill="url(#paint2_linear_302_109)"/>
</g>
</g>
</g>
<defs>
<filter id="filter0_f_302_109" x="15.8667" y="11.9084" width="18.2667" height="39.1" filterUnits="userSpaceOnUse" color-interpolation-filters="sRGB">
<feFlood flood-opacity="0" result="BackgroundImageFix"/>
<feBlend mode="normal" in="SourceGraphic" in2="BackgroundImageFix" result="shape"/>
<feGaussianBlur stdDeviation="0.4" result="effect1_foregroundBlur_302_109"/>
</filter>
<filter id="filter1_f_302_109" x="8.66675" y="5.54163" width="32.6667" height="53.5" filterUnits="userSpaceOnUse" color-interpolation-filters="sRGB">
<feFlood flood-opacity="0" result="BackgroundImageFix"/>
<feBlend mode="normal" in="SourceGraphic" in2="BackgroundImageFix" result="shape"/>
<feGaussianBlur stdDeviation="4" result="effect1_foregroundBlur_302_109"/>
</filter>
<linearGradient id="paint0_linear_302_109" x1="24.3055" y1="-2.73387e-07" x2="46.2839" y2="46.5868" gradientUnits="userSpaceOnUse">
<stop stop-color="#7B7B7B"/>
<stop offset="1" stop-color="#6B6B6B"/>
</linearGradient>
<linearGradient id="paint1_linear_302_109" x1="16.6654" y1="12.5" x2="35.149" y2="48.347" gradientUnits="userSpaceOnUse">
<stop stop-color="#A4A4A4"/>
<stop offset="1" stop-color="#7B7B7B"/>
</linearGradient>
<linearGradient id="paint2_linear_302_109" x1="6.24865" y1="25" x2="16.4627" y2="49.207" gradientUnits="userSpaceOnUse">
<stop stop-color="#C1C1C1"/>
<stop offset="1" stop-color="#A4A4A4"/>
</linearGradient>
<clipPath id="clip0_302_109">
<rect width="50" height="50" fill="white"/>
</clipPath>
</defs>
</svg>
