<svg width="55" height="55" viewBox="0 0 55 55" fill="none" xmlns="http://www.w3.org/2000/svg">
<path d="M10.3125 25.7812C10.7683 25.7812 11.2055 25.6002 11.5278 25.2778C11.8502 24.9555 12.0312 24.5183 12.0312 24.0625V8.59375H30.9375V18.9062C30.9375 19.3621 31.1186 19.7993 31.4409 20.1216C31.7632 20.4439 32.2004 20.625 32.6562 20.625H42.9688V24.0625C42.9688 24.5183 43.1498 24.9555 43.4722 25.2778C43.7945 25.6002 44.2317 25.7812 44.6875 25.7812C45.1433 25.7812 45.5805 25.6002 45.9028 25.2778C46.2252 24.9555 46.4062 24.5183 46.4062 24.0625V18.9062C46.4064 18.6805 46.3621 18.4569 46.2759 18.2482C46.1896 18.0396 46.0631 17.85 45.9035 17.6902L33.8723 5.65898C33.7125 5.49943 33.5229 5.3729 33.3143 5.28664C33.1056 5.20038 32.882 5.15607 32.6562 5.15625H12.0312C11.1196 5.15625 10.2452 5.51841 9.60057 6.16307C8.95591 6.80773 8.59375 7.68207 8.59375 8.59375V24.0625C8.59375 24.5183 8.77483 24.9555 9.09716 25.2778C9.41949 25.6002 9.85666 25.7812 10.3125 25.7812ZM34.375 11.0236L40.5389 17.1875H34.375V11.0236ZM48.9844 44.6875C48.9844 45.1433 48.8033 45.5805 48.481 45.9028C48.1586 46.2252 47.7215 46.4062 47.2656 46.4062H41.25C40.7942 46.4062 40.357 46.2252 40.0347 45.9028C39.7123 45.5805 39.5312 45.1433 39.5312 44.6875V32.6562C39.5312 32.2004 39.7123 31.7632 40.0347 31.4409C40.357 31.1186 40.7942 30.9375 41.25 30.9375C41.7058 30.9375 42.143 31.1186 42.4653 31.4409C42.7877 31.7632 42.9688 32.2004 42.9688 32.6562V42.9687H47.2656C47.7215 42.9687 48.1586 43.1498 48.481 43.4722C48.8033 43.7945 48.9844 44.2317 48.9844 44.6875ZM19.727 42.176C19.66 42.8333 19.4482 43.4677 19.1068 44.0335C18.7654 44.5992 18.3029 45.0823 17.7525 45.448C16.6375 46.1914 15.2539 46.4062 13.9949 46.4062C12.8969 46.4005 11.804 46.2561 10.7422 45.9766C10.3084 45.8495 9.94208 45.5567 9.72264 45.1615C9.5032 44.7663 9.44828 44.3005 9.56977 43.8651C9.69127 43.4297 9.9794 43.0597 10.3718 42.8353C10.7641 42.6108 11.2291 42.5499 11.666 42.6658C12.607 42.9236 14.8779 43.2459 15.8662 42.5885C16.0574 42.4617 16.2594 42.2619 16.326 41.7441C16.4012 41.1705 16.1734 40.8633 13.5803 40.1135C11.5715 39.5334 8.20918 38.5602 8.63887 35.1484C8.70574 34.504 8.91364 33.8821 9.24781 33.327C9.58198 32.772 10.0342 32.2972 10.5725 31.9365C13.1162 30.2178 17.1725 31.2254 17.6258 31.3436C17.8442 31.4011 18.0491 31.5011 18.2288 31.6379C18.4085 31.7746 18.5595 31.9454 18.6733 32.1405C18.787 32.3356 18.8611 32.5512 18.8915 32.775C18.9219 32.9988 18.9079 33.2264 18.8504 33.4447C18.7928 33.6631 18.6928 33.868 18.5561 34.0477C18.4193 34.2274 18.2485 34.3785 18.0534 34.4922C17.8583 34.6059 17.6427 34.6801 17.4189 34.7105C17.1952 34.7409 16.9676 34.7269 16.7492 34.6693C15.7846 34.418 13.4793 34.1193 12.491 34.7896C12.3615 34.877 12.2548 34.9943 12.18 35.1315C12.1053 35.2687 12.0646 35.4219 12.0613 35.5781C12.0355 35.7715 12.0312 35.8102 12.302 35.9863C12.7982 36.3064 13.6855 36.5621 14.5471 36.8113C16.6504 37.4193 20.2082 38.457 19.727 42.176ZM34.9809 42.8699C35.7139 41.5925 36.0977 40.1446 36.0938 38.6719C36.0937 34.4072 33.0107 30.9375 29.2188 30.9375C25.4268 30.9375 22.3438 34.4072 22.3438 38.6719C22.3438 42.9365 25.4268 46.4062 29.2188 46.4062C30.4328 46.4019 31.6196 46.0452 32.6348 45.3793L33.159 45.9035C33.4815 46.2257 33.9188 46.4066 34.3747 46.4064C34.8306 46.4062 35.2677 46.2249 35.5899 45.9024C35.9122 45.5799 36.0931 45.1426 36.0929 44.6867C36.0927 44.2308 35.9114 43.7937 35.5889 43.4715L34.9809 42.8699ZM29.2188 42.9687C27.3238 42.9687 25.7812 41.0352 25.7812 38.6719C25.7812 36.3086 27.3238 34.375 29.2188 34.375C31.1137 34.375 32.6562 36.3086 32.6562 38.6719C32.6565 39.2196 32.571 39.7641 32.4027 40.2853L32.1514 40.034C31.9917 39.8744 31.8021 39.7479 31.5935 39.6616C31.3849 39.5753 31.1614 39.531 30.9357 39.5311C30.4798 39.5313 30.0426 39.7125 29.7204 40.0351C29.3982 40.3576 29.2173 40.7949 29.2175 41.2508C29.2177 41.7067 29.399 42.1438 29.7215 42.466L30.0824 42.8248C29.804 42.9181 29.5124 42.9667 29.2188 42.9687Z" fill="#222222"/>
</svg>
