<svg width="40" height="40" viewBox="0 0 40 40" fill="none" xmlns="http://www.w3.org/2000/svg">
<g clip-path="url(#clip0_302_76)">
<path fill-rule="evenodd" clip-rule="evenodd" d="M40 0H0V40H40V0ZM21.3333 21.3333C21.3333 19.9188 21.8952 18.5623 22.8954 17.5621C23.8956 16.5619 25.2522 16 26.6667 16H29.7787C32.4773 16 34.6667 18.1867 34.6667 20.888V21.3333H32V20.888C32 20.5963 31.9425 20.3074 31.8309 20.0379C31.7193 19.7684 31.5557 19.5236 31.3494 19.3173C31.1431 19.111 30.8982 18.9474 30.6287 18.8358C30.3592 18.7241 30.0704 18.6667 29.7787 18.6667H26.6667C25.9594 18.6667 25.2811 18.9476 24.781 19.4477C24.281 19.9478 24 20.6261 24 21.3333C24 22.0406 24.281 22.7189 24.781 23.219C25.2811 23.719 25.9594 24 26.6667 24H29.3333C30.7478 24 32.1044 24.5619 33.1046 25.5621C34.1048 26.5623 34.6667 27.9188 34.6667 29.3333C34.6667 30.7478 34.1048 32.1044 33.1046 33.1046C32.1044 34.1048 30.7478 34.6667 29.3333 34.6667H26.6667C25.2522 34.6667 23.8956 34.1048 22.8954 33.1046C21.8952 32.1044 21.3333 30.7478 21.3333 29.3333H24C24 30.0406 24.281 30.7189 24.781 31.219C25.2811 31.719 25.9594 32 26.6667 32H29.3333C30.0406 32 30.7189 31.719 31.219 31.219C31.719 30.7189 32 30.0406 32 29.3333C32 28.6261 31.719 27.9478 31.219 27.4477C30.7189 26.9476 30.0406 26.6667 29.3333 26.6667H26.6667C25.2522 26.6667 23.8956 26.1048 22.8954 25.1046C21.8952 24.1044 21.3333 22.7478 21.3333 21.3333ZM16 16V29.3333C16 30.0406 15.719 30.7189 15.219 31.219C14.7189 31.719 14.0406 32 13.3333 32C12.6261 32 11.9478 31.719 11.4477 31.219C10.9476 30.7189 10.6667 30.0406 10.6667 29.3333H8C8 30.7478 8.5619 32.1044 9.5621 33.1046C10.5623 34.1048 11.9188 34.6667 13.3333 34.6667C14.7478 34.6667 16.1044 34.1048 17.1046 33.1046C18.1048 32.1044 18.6667 30.7478 18.6667 29.3333V16H16Z" fill="#222222"/>
</g>
<defs>
<clipPath id="clip0_302_76">
<rect width="40" height="40" fill="white"/>
</clipPath>
</defs>
</svg>
