<svg width="14" height="15" viewBox="0 0 14 15" fill="none" xmlns="http://www.w3.org/2000/svg">
<path d="M7 12.5C6.35387 12.5 5.7939 12.355 5.31947 12.065C4.85584 11.7848 4.47854 11.3753 4.23106 10.8837C3.97731 10.385 3.79037 9.85303 3.67533 9.3025C3.55458 8.70983 3.4956 8.10557 3.49939 7.5C3.49939 7.02125 3.52973 6.56313 3.59161 6.125C3.65228 5.68813 3.76452 5.24375 3.92893 4.7925C4.078 4.36924 4.29138 3.97305 4.5611 3.61875C4.83496 3.27422 5.18091 2.99796 5.57306 2.81063C5.99107 2.60313 6.46611 2.5 7 2.5C7.64613 2.5 8.2061 2.645 8.68053 2.935C9.14416 3.2152 9.52146 3.62469 9.76894 4.11625C10.0225 4.61312 10.2076 5.14063 10.3247 5.6975C10.4412 6.25438 10.5006 6.85562 10.5006 7.5C10.5006 7.97875 10.4703 8.43687 10.4084 8.875C10.3427 9.33108 10.2273 9.77807 10.0644 10.2075C9.9116 10.629 9.69853 11.0246 9.43222 11.3812C9.17863 11.7125 8.84373 11.9825 8.42694 12.1894C8.00953 12.3969 7.53449 12.5 7 12.5V12.5ZM8.23583 8.82375C8.57012 8.4775 8.75637 7.99875 8.7503 7.5C8.7503 6.985 8.58286 6.54375 8.24857 6.17625C7.91368 5.80875 7.49749 5.625 7 5.625C6.50251 5.625 6.08632 5.80875 5.75143 6.17625C5.42133 6.53211 5.241 7.00786 5.2497 7.5C5.2497 8.015 5.41714 8.45625 5.75143 8.82375C6.08632 9.19125 6.50251 9.375 7 9.375C7.49749 9.375 7.91004 9.19125 8.23583 8.82375ZM7 15C10.8658 15 14 11.6419 14 7.5C14 3.35813 10.8658 0 7 0C3.13417 0 0 3.35813 0 7.5C0 11.6419 3.13417 15 7 15Z" fill="#252525"/>
</svg>
