<svg width="50" height="50" viewBox="0 0 50 50" fill="none" xmlns="http://www.w3.org/2000/svg">
<g clip-path="url(#clip0_517_6)">
<path fill-rule="evenodd" clip-rule="evenodd" d="M35.456 49.6586C35.8539 49.8137 36.2794 49.8853 36.7061 49.8689C37.1329 49.8525 37.5517 49.7485 37.9365 49.5633L48.2306 44.6098C48.7607 44.3546 49.2081 43.9549 49.5211 43.4567C49.8341 42.9585 50.0002 42.3821 50.0001 41.7937V8.20664C50.0003 7.61821 49.8343 7.0417 49.5212 6.54345C49.2082 6.0452 48.7608 5.64546 48.2306 5.39023L37.9365 0.437495C37.3548 0.157614 36.7005 0.0654642 36.0641 0.173798C35.4278 0.282133 34.8408 0.585593 34.3845 1.04218L14.6775 19.0211L6.09389 12.5051C5.70668 12.2111 5.22877 12.0619 4.74308 12.0835C4.25738 12.105 3.79456 12.2959 3.43491 12.623L0.681781 15.1273C0.467229 15.3225 0.29577 15.5603 0.178372 15.8254C0.0609738 16.0906 0.000221206 16.3774 6.02952e-07 16.6674C-0.000220001 16.9575 0.0600963 17.2443 0.177091 17.5097C0.294086 17.7751 0.465183 18.0131 0.679437 18.2086L8.12358 25L0.679828 31.7918C0.46569 31.9873 0.294695 32.2253 0.177773 32.4906C0.0608514 32.756 0.000574322 33.0428 0.000794903 33.3327C0.00101548 33.6227 0.0617289 33.9094 0.179054 34.1746C0.29638 34.4397 0.467737 34.6775 0.682171 34.8727L3.4353 37.3769C3.79486 37.7042 4.25767 37.8952 4.74339 37.9168C5.22911 37.9385 5.70706 37.7893 6.09428 37.4953L14.6779 30.9797L34.3849 48.9582C34.6896 49.2635 35.0541 49.502 35.456 49.6586ZM37.5076 13.6496L22.5548 25L37.508 36.3508L37.5076 13.6496Z" fill="#222222"/>
</g>
<defs>
<clipPath id="clip0_517_6">
<rect width="50" height="50" fill="white"/>
</clipPath>
</defs>
</svg>
